<svg xmlns="http://www.w3.org/2000/svg" viewBox="0 0 161.3 344.1" width="8" height="17">
    <path d="M99.5.7h61.8c.1.7.3 1.3.3 2v55.8c0 .8-.2 1.5-.3 2.6h-3.7c-11.3 0-22.6-.1-33.9 0-9.4.1-16.2 7.1-16.2 16.4v33.3c0 1.2.1 2.4.2 3.9h53.9c-.1 1.8-.1 3.3-.3 4.7-1.9 16.8-4 33.6-5.8 50.4-.3 2.5-1.1 3.1-3.5 3.1-13.7-.1-27.3-.1-41 0-1.2 0-2.4.1-4 .2v171.7H35.8v-172H1.4v-58h34.4V110c.2-17.4-.2-34.7.7-52C38 30.8 54.9 10.9 81.2 4.3 87.1 2.5 93.3 1.8 99.5.7z"/>
    <path fill="#FFF" d="M99.5.7c-6.1 1.1-12.4 1.9-18.4 3.4-26.3 6.7-43.2 26.6-44.7 53.7-.9 17.3-.5 34.7-.7 52v4.8H1.3v58h34.4v172h71.2V172.9c1.6-.1 2.8-.2 4-.2 13.7 0 27.3-.1 41 0 2.4 0 3.3-.6 3.5-3.1 1.8-16.8 3.9-33.6 5.8-50.4.2-1.4.2-2.9.3-4.7h-53.9c-.1-1.5-.2-2.7-.2-3.9V77.3c0-9.3 6.9-16.3 16.2-16.4 11.3-.1 22.6 0 33.9 0h3.7c.1-1.1.3-1.9.3-2.6V2.5c0-.7-.2-1.3-.3-2 .4.2 1.2.4 1.3.7.2.7.1 1.6.1 2.3v341.7H.6V.4c33 .3 65.9.3 98.9.3z"/>
</svg>
