<svg xmlns="http://www.w3.org/2000/svg" viewBox="0 0 135.2 135.2" width="16" height="16">
    <path d="M34.9.3h66c.4.1.9.2 1.3.2 3.7.4 7.3 1.2 10.7 2.8 14.5 6.9 22.4 18.4 22.6 34.5.3 20.1.1 40.1.1 60.2 0 7.8-2.1 15-6.6 21.3-7.7 10.8-18.2 16.1-31.4 16.2-19.7.1-39.4 0-59.2 0-2.5 0-5.1-.1-7.6-.7-15.4-3.4-25.2-12.7-29.4-27.8-.5-2-.7-4-1.1-6.1v-66c.2-1.4.4-2.8.7-4.1C4.4 15.4 13.7 5.6 28.8 1.4c2-.6 4-.8 6.1-1.1zM123.5 68V38.6c0-3.1-.3-6.1-1.4-9.1-3.8-10.7-13-17.2-24.7-17.2-19.7 0-39.4-.1-59.2 0-2.9 0-6 .4-8.8 1.4-10.8 3.6-17.3 13-17.3 24.7 0 19.7-.1 39.4.1 59 0 2.9.4 6 1.3 8.8 3.6 10.8 12.9 17.3 24.5 17.3h59.4c8.8 0 15.9-3.5 21.2-10.7 3.4-4.6 4.7-9.8 4.7-15.5.2-9.7.2-19.5.2-29.3z"/>
    <path fill="#FFF" d="M.3 100.9c.4 2 .6 4.1 1.1 6.1 4.2 15.1 14 24.4 29.3 27.8 2.5.5 5.1.7 7.6.7 19.7.1 39.4.1 59.2 0 13.2 0 23.8-5.4 31.4-16.2 4.5-6.3 6.6-13.6 6.6-21.3 0-20.1.2-40.2-.1-60.2-.2-16.1-8.1-27.6-22.6-34.5-3.4-1.6-7-2.4-10.7-2.8-.4 0-.9-.2-1.3-.2h34.9v135.5H.2c.1-11.6.1-23.3.1-34.9zM34.9.3c-2 .4-4.1.6-6.1 1.1C13.7 5.6 4.4 15.4.9 30.7c-.3 1.4-.5 2.8-.7 4.1V.2c11.6.1 23.1.1 34.7.1z"/>
    <path fill="#FFF" d="M123.5 68v29.3c0 5.7-1.4 10.9-4.7 15.5-5.2 7.1-12.4 10.7-21.2 10.7H38.2c-11.6 0-20.9-6.5-24.5-17.3-.9-2.8-1.3-5.9-1.3-8.8-.1-19.7-.1-39.3-.1-59 0-11.7 6.5-21.1 17.3-24.7 2.8-.9 5.9-1.3 8.8-1.4 19.7-.1 39.4-.1 59.2 0 11.6 0 20.8 6.5 24.7 17.2 1 2.9 1.4 6 1.4 9.1-.2 9.8-.2 19.6-.2 29.4zm-55.6 34.7c19.1 0 34.9-15.7 34.9-34.9 0-19.1-15.6-34.7-34.8-34.8-19.1-.1-34.9 15.7-35 34.8 0 19.2 15.7 34.9 34.9 34.9zm36.3-79.8c-4.8 0-8.7 3.9-8.8 8.7-.1 4.8 4 8.8 8.8 8.8 4.8 0 8.7-3.9 8.8-8.7.1-4.8-4-8.8-8.8-8.8z"/>
    <path d="M67.9 102.7C48.7 102.7 33 87 33 67.8c.1-19.1 15.9-34.9 35-34.8 19.2.1 34.8 15.7 34.8 34.8 0 19.2-15.8 35-34.9 34.9zm22.8-34.8c.1-12.5-10.1-22.8-22.8-22.9-12.5 0-22.8 10.2-22.8 22.8-.1 12.6 10.1 22.8 22.7 22.9 12.6.1 22.8-10.1 22.9-22.8zm13.5-45c4.8 0 8.9 4 8.8 8.8-.1 4.8-4 8.7-8.8 8.7-4.8 0-8.9-4-8.8-8.8.1-4.8 4-8.7 8.8-8.7z"/>
    <path fill="#FFF" d="M90.7 67.9c-.1 12.6-10.3 22.9-22.9 22.8-12.6-.1-22.8-10.3-22.7-22.9 0-12.6 10.3-22.8 22.8-22.7 12.7 0 22.9 10.3 22.8 22.8z"/>
</svg>
