<svg xmlns="http://www.w3.org/2000/svg" viewBox="0 0 72 50.6" width="18" height="12">
    <path d="M.1 41.1V9.9c.2-.7.3-1.5.5-2.2C2.1 3.1 6.1.3 11.1.3h50.6c4.5.1 8.6 3.2 9.9 7.6.2.6.3 1.3.5 2v31.2c-.2.7-.3 1.5-.5 2.2-1.5 4.6-5.5 7.4-10.5 7.4H10.5C6 50.6 1.9 47.4.6 43c-.2-.6-.3-1.3-.5-1.9zM29 10.6v27c6.9-4.5 13.6-9 20.5-13.5-6.9-4.6-13.6-9-20.5-13.5z"/>
    <path fill="#FFF" d="M72.1 9.8c-.2-.7-.3-1.3-.5-2C70.3 3.4 66.2.3 61.7.2 56.6.1 51.5.2 46.4.2H11.1C6.1.2 2.1 3 .6 7.6.5 8.4.3 9.1.1 9.8V.1h72v9.7zM.1 41.1c.2.7.3 1.3.5 2 1.3 4.4 5.4 7.5 9.9 7.6 5.1.1 10.2 0 15.3 0h35.3c5 0 9-2.8 10.5-7.4.2-.7.4-1.4.5-2.2v9.7H.1v-9.7zM29 10.6c6.9 4.5 13.6 9 20.5 13.5-6.9 4.5-13.6 9-20.5 13.5v-27z"/>
</svg>
